<svg width="18" height="18" viewBox="0 0 18 18" fill="none" xmlns="http://www.w3.org/2000/svg">
<path opacity="0.4" d="M9 1.49988C13.1363 1.49988 16.5 4.86438 16.5 8.99988C16.5 13.1354 13.1363 16.4999 9 16.4999C4.8645 16.4999 1.5 13.1354 1.5 8.99988C1.5 4.86438 4.8645 1.49988 9 1.49988Z" fill="#006AFF"/>
<path d="M7.91799 5.83432C8.06124 5.83432 8.20524 5.88907 8.31474 5.99857L10.93 8.60107C11.0357 8.70682 11.095 8.85007 11.095 9.00007C11.095 9.14932 11.0357 9.29257 10.93 9.39832L8.31474 12.0023C8.09499 12.2213 7.73949 12.2213 7.51974 12.0008C7.30074 11.7803 7.30149 11.4241 7.52124 11.2051L9.73599 9.00007L7.52124 6.79507C7.30149 6.57607 7.30074 6.22057 7.51974 6.00007C7.62924 5.88907 7.77399 5.83432 7.91799 5.83432Z" fill="#006AFF"/>
</svg>
