<svg width="18" height="18" viewBox="0 0 18 18" fill="none" xmlns="http://www.w3.org/2000/svg">
<path opacity="0.4" d="M9 16.5001C4.86375 16.5001 1.5 13.1356 1.5 9.00012C1.5 4.86462 4.86375 1.50012 9 1.50012C13.1355 1.50012 16.5 4.86462 16.5 9.00012C16.5 13.1356 13.1355 16.5001 9 16.5001Z" fill="#006AFF"/>
<path d="M10.082 12.1657C9.93876 12.1657 9.79476 12.1109 9.68526 12.0014L7.07001 9.39893C6.96426 9.29318 6.90501 9.14993 6.90501 8.99993C6.90501 8.85068 6.96426 8.70743 7.07001 8.60168L9.68526 5.99768C9.90501 5.77868 10.2605 5.77868 10.4803 5.99918C10.6993 6.21968 10.6985 6.57593 10.4788 6.79493L8.26401 8.99993L10.4788 11.2049C10.6985 11.4239 10.6993 11.7794 10.4803 11.9999C10.3708 12.1109 10.226 12.1657 10.082 12.1657Z" fill="#006AFF"/>
</svg>
