<svg width="14" height="16" viewBox="0 0 14 16" fill="none" xmlns="http://www.w3.org/2000/svg">
<path fill-rule="evenodd" clip-rule="evenodd" d="M13.6849 11.2361L13.1083 6.59005C12.757 4.93223 11.7627 4.25 10.8148 4.25H3.19878C2.23766 4.25 1.21026 4.88448 0.911979 6.59005L0.328678 11.2361C-0.148568 14.6472 1.60796 15.5 3.9014 15.5H10.1189C12.4057 15.5 14.1092 14.2652 13.6849 11.2361ZM4.82273 8.11141C4.45665 8.11141 4.15989 7.80596 4.15989 7.42918C4.15989 7.05239 4.45665 6.74694 4.82273 6.74694C5.18881 6.74694 5.48557 7.05239 5.48557 7.42918C5.48557 7.80596 5.18881 8.11141 4.82273 8.11141ZM8.50151 7.42918C8.50151 7.80596 8.79827 8.11141 9.16435 8.11141C9.53043 8.11141 9.82719 7.80596 9.82719 7.42918C9.82719 7.05239 9.53043 6.74694 9.16435 6.74694C8.79827 6.74694 8.50151 7.05239 8.50151 7.42918Z" fill="#006AFF"/>
<path opacity="0.4" d="M10.7304 4.08074C10.7328 4.13892 10.7216 4.19684 10.6977 4.25H9.61991C9.59903 4.19596 9.58797 4.13865 9.58724 4.08074C9.58724 2.64262 8.41739 1.47679 6.97431 1.47679C5.53123 1.47679 4.36138 2.64262 4.36138 4.08074C4.37127 4.13673 4.37127 4.19401 4.36138 4.25H3.25742C3.24753 4.19401 3.24753 4.13673 3.25742 4.08074C3.34129 2.07943 4.99375 0.5 7.00371 0.5C9.01367 0.5 10.6661 2.07943 10.75 4.08074H10.7304Z" fill="#006AFF"/>
</svg>
