<svg width="48" height="48" viewBox="0 0 48 48" fill="none" xmlns="http://www.w3.org/2000/svg">
<circle opacity="0.12" cx="24" cy="24" r="24" fill="#006AFF"/>
<path opacity="0.4" d="M24.9763 15.1136L27.2028 19.5879C27.3668 19.9121 27.6799 20.1372 28.041 20.1872L33.042 20.9156C33.3341 20.9566 33.5992 21.1107 33.7782 21.3458C33.9552 21.5779 34.0312 21.8721 33.9882 22.1612C33.9532 22.4013 33.8402 22.6234 33.6672 22.7935L30.0434 26.3063C29.7783 26.5514 29.6583 26.9146 29.7223 27.2698L30.6145 32.2083C30.7095 32.8046 30.3144 33.3669 29.7223 33.48C29.4783 33.519 29.2282 33.478 29.0082 33.3659L24.5472 31.0417C24.2161 30.8746 23.8251 30.8746 23.494 31.0417L19.033 33.3659C18.4849 33.657 17.8058 33.4589 17.5007 32.9187C17.3877 32.7036 17.3477 32.4584 17.3847 32.2193L18.2769 27.2798C18.3409 26.9256 18.2199 26.5604 17.9558 26.3153L14.332 22.8045C13.9009 22.3883 13.8879 21.703 14.303 21.2717C14.312 21.2627 14.322 21.2527 14.332 21.2427C14.5041 21.0676 14.7301 20.9566 14.9742 20.9276L19.9752 20.1982C20.3353 20.1472 20.6484 19.9241 20.8134 19.5979L22.9599 15.1136C23.1509 14.7294 23.547 14.4903 23.9771 14.5003H24.1111C24.4842 14.5453 24.8093 14.7764 24.9763 15.1136Z" fill="#006AFF"/>
<path d="M23.992 30.9171C23.7983 30.9231 23.6096 30.9752 23.4399 31.0682L19.0007 33.3871C18.4576 33.6464 17.8076 33.4452 17.503 32.9258C17.3902 32.7136 17.3493 32.4704 17.3872 32.2322L18.2738 27.3032C18.3338 26.9449 18.2139 26.5806 17.9533 26.3284L14.3279 22.8185C13.8976 22.3971 13.8896 21.7056 14.311 21.2742C14.317 21.2682 14.3219 21.2632 14.3279 21.2582C14.4997 21.0881 14.7213 20.976 14.96 20.9409L19.9652 20.2043C20.3277 20.1583 20.6422 19.9321 20.8019 19.6038L22.9776 15.0631C23.1843 14.6968 23.5806 14.4786 24 14.5017C23.992 14.7989 23.992 30.715 23.992 30.9171Z" fill="#006AFF"/>
</svg>
