<svg width="18" height="18" viewBox="0 0 18 18" fill="none" xmlns="http://www.w3.org/2000/svg">
<g id="Iconly/Bulk/Chat">
<g id="Chat">
<path id="Fill 1" opacity="0.4" d="M9.015 1.5C4.6575 1.5 1.5 5.055 1.5 9C1.5 10.26 1.8675 11.5575 2.5125 12.7425C2.6325 12.9375 2.6475 13.185 2.565 13.4175L2.0625 15.0975C1.95 15.5025 2.295 15.8025 2.6775 15.6825L4.1925 15.2325C4.605 15.0975 4.9275 15.27 5.31075 15.5025C6.40575 16.1475 7.77 16.4775 9 16.4775C12.72 16.4775 16.5 13.605 16.5 8.9775C16.5 4.9875 13.275 1.5 9.015 1.5Z" fill="#006AFF"/>
<path id="Combined Shape" fill-rule="evenodd" clip-rule="evenodd" d="M8.98538 9.96758C8.45288 9.96008 8.02538 9.53258 8.02538 9.00008C8.02538 8.47508 8.46038 8.04008 8.98538 8.04758C9.51788 8.04758 9.94538 8.47508 9.94538 9.00758C9.94538 9.53258 9.51788 9.96758 8.98538 9.96758ZM5.52757 9.96761C5.00257 9.96761 4.56757 9.53261 4.56757 9.00761C4.56757 8.47511 4.99507 8.04761 5.52757 8.04761C6.06007 8.04761 6.48757 8.47511 6.48757 9.00761C6.48757 9.53261 6.06007 9.96011 5.52757 9.96761ZM11.4827 9.00758C11.4827 9.53258 11.9102 9.96758 12.4427 9.96758C12.9752 9.96758 13.4027 9.53258 13.4027 9.00758C13.4027 8.47508 12.9752 8.04758 12.4427 8.04758C11.9102 8.04758 11.4827 8.47508 11.4827 9.00758Z" fill="#006AFF"/>
</g>
</g>
</svg>
