<svg width="48" height="48" viewBox="0 0 48 48" fill="none" xmlns="http://www.w3.org/2000/svg">
<circle opacity="0.12" cx="24" cy="24" r="24" fill="#006AFF"/>
<path opacity="0.4" d="M30.8088 21.021C30.3573 21.021 29.7592 21.011 29.0146 21.011C27.1987 21.011 25.7055 19.508 25.7055 17.675V14.459C25.7055 14.206 25.5036 14 25.253 14H19.9636C17.4952 14 15.5 16.026 15.5 18.509V29.284C15.5 31.889 17.5902 34 20.1696 34H28.0463C30.5058 34 32.5 31.987 32.5 29.502V21.471C32.5 21.217 32.299 21.012 32.0475 21.013C31.6247 21.016 31.1177 21.021 30.8088 21.021Z" fill="#006AFF"/>
<path opacity="0.4" d="M28.0839 14.5672C27.7849 14.2562 27.2629 14.4702 27.2629 14.9012V17.5382C27.2629 18.6442 28.1739 19.5542 29.2799 19.5542C29.9769 19.5622 30.9449 19.5642 31.7669 19.5622C32.1879 19.5612 32.4019 19.0582 32.1099 18.7542C31.0549 17.6572 29.1659 15.6912 28.0839 14.5672Z" fill="#006AFF"/>
<path fill-rule="evenodd" clip-rule="evenodd" d="M20.974 23.3876H24.359C24.77 23.3876 25.104 23.0546 25.104 22.6436C25.104 22.2326 24.77 21.8986 24.359 21.8986H20.974C20.563 21.8986 20.23 22.2326 20.23 22.6436C20.23 23.0546 20.563 23.3876 20.974 23.3876ZM20.9741 28.3818H26.4181C26.8291 28.3818 27.1631 28.0488 27.1631 27.6378C27.1631 27.2268 26.8291 26.8928 26.4181 26.8928H20.9741C20.5631 26.8928 20.2301 27.2268 20.2301 27.6378C20.2301 28.0488 20.5631 28.3818 20.9741 28.3818Z" fill="#006AFF"/>
</svg>
