<svg width="22" height="26" viewBox="0 0 22 26" fill="none" xmlns="http://www.w3.org/2000/svg">
<path opacity="0.4" d="M19.511 9.27625C18.9466 9.27625 18.1991 9.26375 17.2683 9.26375C14.9984 9.26375 13.1319 7.385 13.1319 5.09375V1.07375C13.1319 0.7575 12.8782 0.5 12.5663 0.5H5.95453C2.86896 0.5 0.375 3.0325 0.375 6.13625V19.605C0.375 22.8612 2.98778 25.5 6.21197 25.5H16.0566C19.1323 25.5 21.625 22.9837 21.625 19.8775V9.83875C21.625 9.52125 21.3725 9.265 21.0581 9.26625C20.5309 9.27 19.8959 9.27625 19.511 9.27625Z" fill="#006AFF"/>
<path opacity="0.4" d="M16.1051 1.20911C15.7314 0.820363 15.0789 1.08786 15.0789 1.62661V4.92286C15.0789 6.30536 16.2176 7.44286 17.5989 7.44286C18.4714 7.45286 19.6814 7.45536 20.7089 7.45286C21.2351 7.45161 21.5026 6.82286 21.1376 6.44286C19.8189 5.07161 17.4576 2.61411 16.1051 1.20911Z" fill="#006AFF"/>
<path d="M13.9591 13.2954H11.7991V11.1366C11.7991 10.6229 11.3829 10.2054 10.8691 10.2054C10.3554 10.2054 9.93787 10.6229 9.93787 11.1366V13.2954H7.77912C7.26537 13.2954 6.84912 13.7129 6.84912 14.2266C6.84912 14.7404 7.26537 15.1579 7.77912 15.1579H9.93787V17.3154C9.93787 17.8291 10.3554 18.2466 10.8691 18.2466C11.3829 18.2466 11.7991 17.8291 11.7991 17.3154V15.1579H13.9591C14.4729 15.1579 14.8904 14.7404 14.8904 14.2266C14.8904 13.7129 14.4729 13.2954 13.9591 13.2954Z" fill="#006AFF"/>
</svg>
