<svg width="48" height="48" viewBox="0 0 48 48" fill="none" xmlns="http://www.w3.org/2000/svg">
<circle opacity="0.12" cx="24" cy="24" r="24" fill="#006AFF"/>
<path opacity="0.4" d="M33.3309 19.4425C32.9119 19.1785 32.3969 19.1552 31.9579 19.3785L30.4759 20.1268C29.9279 20.4029 29.5879 20.9613 29.5879 21.5826V27.4161C29.5879 28.0374 29.9279 28.5948 30.4759 28.873L31.9569 29.6202C32.1579 29.7237 32.3729 29.7735 32.5879 29.7735C32.8459 29.7735 33.1019 29.7004 33.3309 29.5572C33.7499 29.2943 33.9999 28.8384 33.9999 28.339V20.6618C33.9999 20.1623 33.7499 19.7065 33.3309 19.4425Z" fill="#006AFF"/>
<path d="M23.9051 32H18.113C15.691 32 14 30.3299 14 27.9391V21.0609C14 18.669 15.691 17 18.113 17H23.9051C26.3271 17 28.0181 18.669 28.0181 21.0609V27.9391C28.0181 30.3299 26.3271 32 23.9051 32Z" fill="#006AFF"/>
</svg>
